<?xml version="1.0" encoding="UTF-8"?>
<svg xmlns="http://www.w3.org/2000/svg" viewBox="0 0 240 60">
    <style type="text/css">
        .st0{fill:#3e2f22;}
        .st1{fill:#356d9d;}
    </style>
    <g>
        <!-- Legament文字部分 -->
        <path class="st0" d="M14.2,15.3h5.6v24.8h13.7v4.6H14.2V15.3z"/>
        <path class="st0" d="M38.6,28.8h5.1v3h0.1c1.5-2.3,3.8-3.5,6.4-3.5c5.3,0,8.3,4,8.3,9.1v7.3h-5.3v-6.7c0-2.9-1.4-4.9-4.1-4.9
            c-2.8,0-5.2,2.1-5.2,6.6v5h-5.3V28.8z"/>
        <path class="st0" d="M74.9,34.1c-0.4-2.2-2-3.4-4.2-3.4c-3.3,0-5.2,2.8-5.2,6c0,3.2,1.9,6,5.2,6c2.3,0,3.8-1.2,4.4-3.6h5.2
            c-0.7,5-4.5,8.1-9.6,8.1c-6.1,0-10.5-4.2-10.5-10.4c0-6.3,4.4-10.5,10.5-10.5c4.6,0,8.6,2.7,9.4,7.8H74.9z"/>
        <path class="st0" d="M84.9,28.8h5.1v3h0.1c1.1-2.3,3.7-3.5,6-3.5c0.6,0,1.1,0.1,1.5,0.2v5c-0.6-0.2-1.6-0.3-2.3-0.3
            c-3.4,0-5,2.4-5,6.4v5.1h-5.3V28.8z"/>
        <path class="st0" d="M112.9,44.7h-0.1c-1.4,2-3.6,3-6.2,3c-3.9,0-7.3-2.1-7.3-6.3c0-6.3,7.3-6.6,12.3-6.6h1.1
            c0-2.2-1.8-3.5-4-3.5c-2,0-3.7,0.8-5,2.2l-3.1-3c2.2-2.2,5.3-3.3,8.5-3.3c6.3,0,8.9,3.2,8.9,8.3v9.3h-5V44.7z M112.7,38.1h-1
            c-2.5,0-6.8,0.1-6.8,2.8c0,1.5,1.6,2.2,3,2.2c2.8,0,4.8-1.4,4.8-4.2V38.1z"/>
        <path class="st0" d="M121.8,28.8h5.1v2.5h0.1c1.5-2,3.7-3,6.1-3c2.3,0,4.3,0.9,5.4,2.9c1.3-1.8,3.4-2.9,5.8-2.9
            c4.6,0,6.9,2.5,6.9,7v9.4h-5.3v-8.2c0-2-0.9-3.4-3-3.4c-2.5,0-3.6,1.9-3.6,4.3v7.3h-5.3v-8.2c0-2-0.9-3.4-3-3.4
            c-2.5,0-3.6,1.7-3.6,4.3v7.3h-5.3V28.8z"/>
        <path class="st0" d="M167.1,28.8h5.1v3h0.1c1.5-2.3,3.8-3.5,6.4-3.5c5.3,0,8.3,4,8.3,9.1v7.3h-5.3v-6.7c0-2.9-1.4-4.9-4.1-4.9
            c-2.8,0-5.2,2.1-5.2,6.6v5h-5.3V28.8z"/>
        <path class="st0" d="M191.5,39c0-6.2,4.6-10.6,10.8-10.6c6.1,0,10.8,4.5,10.8,10.6c0,6.2-4.6,10.6-10.8,10.6
            C196.1,49.7,191.5,45.2,191.5,39z M207.7,39c0-3.2-2.2-6-5.4-6c-3.2,0-5.4,2.9-5.4,6c0,3.2,2.2,6.1,5.4,6.1
            C205.5,45.1,207.7,42.2,207.7,39z"/>
        <path class="st0" d="M226.8,33.3c-3,0-5.2,2.5-5.2,6c0,3.4,2.3,6,5.2,6c2.3,0,3.8-1,4.8-3l4.6,2.6c-1.8,3.3-5.1,4.9-9.2,4.9
            c-6.1,0-10.6-4.3-10.6-10.5c0-6.3,4.5-10.6,10.6-10.6c3.8,0,7.2,1.5,9.1,4.9l-4.6,2.7C230.6,34.3,229.1,33.3,226.8,33.3z"/>
    </g>
    <!-- ブルーの線 -->
    <rect x="10" y="52" class="st1" width="220" height="3"/>
</svg>
