<?xml version="1.0" encoding="UTF-8"?>
<svg xmlns="http://www.w3.org/2000/svg" viewBox="0 0 64 64">
    <g fill="#356d9d">
        <!-- 中央の人 -->
        <circle cx="32" cy="12" r="6"/>
        <path d="M32,20c-4.4,0-8,3.6-8,8v16h16V28C40,23.6,36.4,20,32,20z"/>
        
        <!-- 左の人 -->
        <circle cx="16" cy="16" r="5" opacity="0.8"/>
        <path d="M16,22c-3.3,0-6,2.7-6,6v12h12V28C22,24.7,19.3,22,16,22z" opacity="0.8"/>
        
        <!-- 右の人 -->
        <circle cx="48" cy="16" r="5" opacity="0.8"/>
        <path d="M48,22c-3.3,0-6,2.7-6,6v12h12V28C54,24.7,51.3,22,48,22z" opacity="0.8"/>
    </g>
</svg>
