<?xml version="1.0" encoding="UTF-8"?>
<svg xmlns="http://www.w3.org/2000/svg" viewBox="0 0 64 64">
    <g fill="#356d9d">
        <!-- 電話受話器 -->
        <path d="M44,42c-2.3,0-4.6-0.4-6.7-1.1c-1.1-0.4-2.3-0.1-3.1,0.7l-4,4c-5.1-2.7-9.2-6.8-11.9-11.9l4-4
            c0.8-0.8,1.1-2,0.7-3.1c-0.7-2.1-1.1-4.4-1.1-6.7c0-1.7-1.3-3-3-3h-6c-1.7,0-3,1.3-3,3c0,19.9,16.1,36,36,36c1.7,0,3-1.3,3-3v-6
            C49,43.3,47.7,42,46,42H44z"/>
        
        <!-- グラフ線 -->
        <path d="M54,10H30c-1.1,0-2,0.9-2,2v16c0,1.1,0.9,2,2,2h24c1.1,0,2-0.9,2-2V12C56,10.9,55.1,10,54,10z M48,24h-4v-8h4V24z
            M38,24h-4v-4h4V24z"/>
    </g>
</svg>
