<?xml version="1.0" encoding="UTF-8"?>
<svg xmlns="http://www.w3.org/2000/svg" viewBox="0 0 64 64">
    <g fill="#356d9d">
        <!-- ノートパソコン -->
        <path d="M52,14H12c-1.1,0-2,0.9-2,2v24c0,1.1,0.9,2,2,2h40c1.1,0,2-0.9,2-2V16C54,14.9,53.1,14,52,14z M50,38H14V18h36V38z"/>
        <path d="M56,42H8c-1.1,0-2,0.9-2,2v2c0,1.1,0.9,2,2,2h48c1.1,0,2-0.9,2-2v-2C58,42.9,57.1,42,56,42z"/>
        
        <!-- 画面内のコードイメージ -->
        <rect x="18" y="22" width="28" height="2" opacity="0.7"/>
        <rect x="18" y="26" width="20" height="2" opacity="0.7"/>
        <rect x="18" y="30" width="24" height="2" opacity="0.7"/>
        <rect x="18" y="34" width="16" height="2" opacity="0.7"/>
    </g>
</svg>
